<svg aria-hidden="true" style="width:0;height:0;position:absolute;overflow:hidden" xmlns="http://www.w3.org/2000/svg"><defs><symbol id="icon-valorant-logo" viewBox="0 0 38 32"><path d="M0 15.868V0l25.556 32H12.778L0 15.868zM34.119 21.289H21.604L38.4 0v15.868l-4.281 5.422z"/></symbol><symbol id="icon-rito-logo" viewBox="0 0 114 32"><path d="M19.155.064 0 8.935l4.773 18.164 3.633-.446-.999-11.421 1.193-.531 2.06 11.675 6.208-.762-1.104-12.606 1.181-.526 2.265 12.845 6.28-.772-1.208-13.818 1.195-.531 2.477 14.047 6.208-.762V3.824L19.157.065zm.45 27.549.316 1.788 14.239 2.374v-5.95l-14.555 1.788zm28.023-3.727v2.449h3.02v.002c0 .52-.138 1.009-.38 1.43l.007-.014a2.54 2.54 0 0 1-1.071.984l-.015.007a3.826 3.826 0 0 1-1.732.349h.006l-.094.001a3.384 3.384 0 0 1-1.858-.552l.013.008a3.488 3.488 0 0 1-1.241-1.555l-.008-.023a6.298 6.298 0 0 1-.442-2.34l.002-.176v.009a6.15 6.15 0 0 1 .465-2.525l-.015.041a3.544 3.544 0 0 1 1.249-1.544l.012-.008a3.316 3.316 0 0 1 1.909-.539h-.004.033c.358 0 .705.05 1.033.144l-.026-.006c.32.093.6.232.848.411l-.008-.006c.243.176.447.388.611.629l.006.009c.164.247.297.534.383.84l.005.021h3.349a5.272 5.272 0 0 0-.684-2.018l.013.025a5.624 5.624 0 0 0-1.356-1.562l-.012-.009a6.284 6.284 0 0 0-1.877-1.013l-.045-.013a7.201 7.201 0 0 0-2.276-.361h-.067.003-.06c-.956 0-1.868.185-2.703.522l.049-.017a6.364 6.364 0 0 0-2.202 1.474l-.002.002a6.788 6.788 0 0 0-1.461 2.321l-.015.047a8.782 8.782 0 0 0-.53 3.196v-.008q0 2.316.88 3.993a6.336 6.336 0 0 0 2.431 2.557l.03.016a7.628 7.628 0 0 0 3.637.91 7.688 7.688 0 0 0 3.36-.767l-.046.02a5.546 5.546 0 0 0 2.249-2.108l.014-.026q.824-1.394.822-3.336v-1.893zM89.33 31.8V17.169h10.021v2.707h-6.714v3.25h5.428v2.707h-5.428v3.258h6.73v2.707H89.331zm19.749-10.337a1.748 1.748 0 0 0-.682-1.285l-.004-.003c-.405-.308-.97-.462-1.685-.462a3.23 3.23 0 0 0-1.237.201l.022-.007a1.677 1.677 0 0 0-.74.536l-.003.004a1.3 1.3 0 0 0-.258.776l-.001.049c0 .216.057.42.157.595l-.003-.006c.117.195.274.354.46.472l.006.003c.206.136.444.253.695.34l.023.007c.239.088.54.175.848.244l.052.01 1.286.299a9.05 9.05 0 0 1 1.89.621l-.057-.023c.536.242.997.546 1.401.912l-.005-.004c.373.34.673.753.879 1.216l.009.023c.198.455.313.984.313 1.541l-.001.071v-.004l.001.104c0 .838-.257 1.615-.697 2.258l.009-.014a4.396 4.396 0 0 1-1.939 1.512l-.03.01a7.877 7.877 0 0 1-3.1.535h.01a8.266 8.266 0 0 1-3.192-.564l.056.019a4.536 4.536 0 0 1-2.069-1.63l-.01-.015q-.743-1.098-.776-2.738h3.186a2.073 2.073 0 0 0 1.353 1.923l.014.005a3.69 3.69 0 0 0 1.334.245l.073-.001h-.004l.078.001c.435 0 .853-.078 1.238-.22l-.025.008c.337-.121.62-.321.837-.579l.002-.003c.189-.236.304-.539.305-.869v-.013a1.19 1.19 0 0 0-.277-.765l.002.002a2.115 2.115 0 0 0-.789-.54l-.014-.005a7.728 7.728 0 0 0-1.282-.405l-.055-.01-1.565-.378q-1.871-.446-2.954-1.408t-1.074-2.607l-.001-.104c0-.843.271-1.623.731-2.258l-.008.011a4.815 4.815 0 0 1 1.972-1.561l.031-.012a7 7 0 0 1 2.916-.565h-.007l.155-.002c.99 0 1.932.208 2.783.584l-.044-.017c.79.349 1.44.89 1.912 1.564l.01.015c.438.65.698 1.451.698 2.312v.04-.002zM86.972 31.8H83.7V20.678l-.335-.004L80.06 31.8h-3.27l-3.216-11.126-.417.004V31.8h-3.272V17.169h5.56l2.808 9.806h.339l2.808-9.806h5.57V31.8zm-22.237 0h3.543l-4.913-14.629h-4.49L53.955 31.8h3.549l.956-3.208h5.318zm-5.514-5.76 1.594-5.362h.601l1.602 5.362zm54.028-7.323a.777.777 0 0 1-.71-.468l-.002-.005a.77.77 0 0 1 .002-.607l-.002.005a.77.77 0 0 1 .165-.246.84.84 0 0 1 .241-.165l.005-.002a.795.795 0 0 1 .607.002l-.005-.002a.801.801 0 0 1 .411.408l.002.005a.77.77 0 0 1-.002.607l.002-.005a.801.801 0 0 1-.408.411l-.005.002a.76.76 0 0 1-.299.06h-.001zm0-.211h.006a.546.546 0 0 0 .281-.077l-.003.001a.573.573 0 0 0 .202-.192l.001-.002a.567.567 0 0 0-.001-.569l.001.003a.574.574 0 0 0-.203-.192l-.003-.002a.567.567 0 0 0-.569.001l.003-.001a.575.575 0 0 0-.192.191l-.001.003a.548.548 0 0 0 .001.569l-.001-.003c.049.08.114.145.191.192l.002.001a.54.54 0 0 0 .278.076h.005zm-.283-.223v-.712h.351c.046 0 .09.011.13.03l-.002-.001a.216.216 0 0 1 .091.081l.001.001a.237.237 0 0 1 .033.122v.014a.218.218 0 0 1-.036.121l.001-.001a.196.196 0 0 1-.092.079h-.001a.302.302 0 0 1-.126.027H113.073v-.14h.199a.1.1 0 0 0 .065-.024.094.094 0 0 0 .027-.067v-.012a.088.088 0 0 0-.027-.065.097.097 0 0 0-.065-.023h-.111v.568zm.463-.326.159.326h-.215l-.145-.326zM54.77.2h3.307v14.631H54.77zm19.01 7.315q0 2.409-.913 4.073a6.383 6.383 0 0 1-2.45 2.538l-.031.016c-1.019.554-2.232.88-3.521.88s-2.502-.326-3.56-.9l.039.02a6.404 6.404 0 0 1-2.464-2.526l-.017-.034q-.913-1.679-.913-4.073t.913-4.082A6.381 6.381 0 0 1 63.305.895l.031-.016c1.02-.553 2.232-.878 3.521-.878s2.501.325 3.561.898l-.04-.02a6.39 6.39 0 0 1 2.464 2.52l.017.034q.913 1.676.913 4.082zm-3.372 0a6.442 6.442 0 0 0-.448-2.565l.015.044a3.407 3.407 0 0 0-1.217-1.544l-.011-.007c-.537-.335-1.188-.533-1.886-.533s-1.35.199-1.901.542l.015-.009c-.55.383-.974.911-1.223 1.529l-.008.023c-.277.75-.437 1.617-.437 2.521s.16 1.771.454 2.573l-.017-.052a3.408 3.408 0 0 0 1.22 1.544l.011.007c.537.335 1.188.533 1.886.533s1.35-.199 1.901-.542l-.015.009a3.4 3.4 0 0 0 1.22-1.529l.008-.023a6.37 6.37 0 0 0 .432-2.531v.01zM47.822 9.73l1.699 5.101h3.629l-1.889-5.494h-2.566l-.153-.473c.489-.095 1.325-.242 2.065-.747a3.879 3.879 0 0 0 1.697-3.177v-.002a4.658 4.658 0 0 0-.644-2.495l.012.022A4.285 4.285 0 0 0 49.882.8l-.025-.011a6.221 6.221 0 0 0-2.848-.582h.01-5.902V14.83h3.309V9.729zm-.062-3.027c-.385.146-.83.231-1.295.231l-.119-.002h.006-1.928V2.886h1.922l.104-.002c.468 0 .916.089 1.326.251l-.025-.009c.36.146.653.395.849.71l.004.007c.183.291.292.645.292 1.024l-.001.074v-.004l.002.078c0 .37-.108.716-.293 1.006l.005-.008a1.732 1.732 0 0 1-.838.685l-.012.004zM74.093.2v2.715h5.682l.155.475c-.481.093-1.294.237-2.023.718v10.727h3.272V2.908h3.805V.193z"/></symbol><symbol id="icon-youtube" viewBox="0 0 32 32"><path d="M31.333 8.676a3.71 3.71 0 0 0-1.021-1.693 4.068 4.068 0 0 0-1.784-.989c-2.504-.66-12.536-.66-12.536-.66-4.182-.048-8.363.162-12.52.627a4.223 4.223 0 0 0-1.784 1.013A3.86 3.86 0 0 0 .651 8.675 38.877 38.877 0 0 0 0 16a38.651 38.651 0 0 0 .651 7.325c.183.639.539 1.221 1.033 1.692s1.111.811 1.788.991c2.537.659 12.52.659 12.52.659 4.188.048 8.374-.162 12.536-.627a4.068 4.068 0 0 0 1.784-.989 3.712 3.712 0 0 0 1.02-1.693c.46-2.415.684-4.869.668-7.327a35.404 35.404 0 0 0-.667-7.356v.001zm-18.53 11.889v-9.129l8.347 4.565-8.347 4.564z"/></symbol><symbol id="icon-discord" viewBox="0 0 32 32"><path d="M27.089 5.989c-2.04-.92-4.227-1.6-6.513-1.987-.02-.004-.041-.001-.06.007s-.035.023-.045.041c-.28.492-.592 1.133-.811 1.64a24.778 24.778 0 0 0-7.316 0 16.204 16.204 0 0 0-.823-1.64c-.01-.018-.026-.033-.045-.042s-.04-.012-.061-.009a26.667 26.667 0 0 0-6.513 1.988.094.094 0 0 0-.043.036C.71 12.123-.428 18.072.131 23.947c.002.014.006.028.013.041s.017.024.028.032a26.712 26.712 0 0 0 7.991 3.973c.02.006.041.006.061 0s.038-.018.051-.035c.616-.827 1.165-1.7 1.635-2.617a.1.1 0 0 0-.055-.139 17.561 17.561 0 0 1-2.496-1.171c-.014-.008-.027-.02-.035-.034s-.014-.03-.015-.047a.098.098 0 0 1 .04-.086c.168-.124.336-.253.496-.383a.1.1 0 0 1 .104-.013c5.236 2.352 10.907 2.352 16.081 0a.101.101 0 0 1 .105.012c.16.131.327.26.496.384a.104.104 0 0 1 .041.086c-.001.016-.006.033-.014.047s-.02.026-.035.034c-.797.459-1.627.847-2.497 1.169a.101.101 0 0 0-.055.141c.48.916 1.029 1.788 1.633 2.616.013.017.03.03.05.036s.042.007.062.001a26.605 26.605 0 0 0 8.003-3.975c.012-.008.022-.019.029-.031s.012-.026.014-.041c.667-6.792-1.117-12.693-4.732-17.923a.082.082 0 0 0-.041-.037zM10.693 20.371c-1.576 0-2.876-1.425-2.876-3.173 0-1.749 1.275-3.173 2.876-3.173 1.613 0 2.901 1.436 2.876 3.173 0 1.749-1.275 3.173-2.876 3.173zm10.634 0c-1.577 0-2.876-1.425-2.876-3.173 0-1.749 1.273-3.173 2.876-3.173 1.613 0 2.901 1.436 2.876 3.173 0 1.749-1.261 3.173-2.876 3.173z"/></symbol><symbol id="icon-facebook" viewBox="0 0 32 32"><path d="M0 16.089C0 24.044 5.777 30.658 13.333 32V20.444h-4V16h4v-3.556c0-4 2.577-6.221 6.223-6.221 1.155 0 2.4.177 3.555.355v4.089h-2.044c-1.956 0-2.4.977-2.4 2.223v3.111h4.267l-.711 4.444h-3.556v11.556C26.223 30.66 32 24.046 32 16.09 32 7.241 24.8.001 16 .001S0 7.241 0 16.09z"/></symbol><symbol id="icon-instagram" viewBox="0 0 32 32"><path d="M16 0c-4.342 0-4.888.02-6.594.096C7.7.176 6.538.444 5.52.84a7.842 7.842 0 0 0-2.834 1.846A7.842 7.842 0 0 0 .84 5.52C.444 6.536.174 7.7.096 9.4.02 11.11 0 11.654 0 16.002c0 4.344.02 4.888.096 6.594.08 1.704.348 2.866.744 3.884a7.858 7.858 0 0 0 1.846 2.834 7.808 7.808 0 0 0 2.832 1.846c1.02.396 2.18.666 3.884.744C11.11 31.98 11.654 32 16 32s4.888-.02 6.596-.096c1.702-.08 2.868-.348 3.886-.744a7.834 7.834 0 0 0 2.832-1.846 7.858 7.858 0 0 0 1.846-2.834c.394-1.018.664-2.18.744-3.884C31.98 20.89 32 20.346 32 16s-.02-4.89-.096-6.598c-.08-1.702-.35-2.866-.744-3.882a7.842 7.842 0 0 0-1.846-2.834A7.816 7.816 0 0 0 26.48.84C25.46.444 24.296.174 22.594.096 20.886.02 20.344 0 15.996 0H16zm-1.434 2.884h1.436c4.272 0 4.778.014 6.464.092 1.56.07 2.408.332 2.972.55.746.29 1.28.638 1.84 1.198s.906 1.092 1.196 1.84c.22.562.48 1.41.55 2.97.078 1.686.094 2.192.094 6.462s-.016 4.778-.094 6.464c-.07 1.56-.332 2.406-.55 2.97a4.931 4.931 0 0 1-1.198 1.838c-.56.56-1.092.906-1.84 1.196-.56.22-1.408.48-2.97.552-1.686.076-2.192.094-6.464.094s-4.78-.018-6.466-.094c-1.56-.072-2.406-.332-2.97-.552a4.954 4.954 0 0 1-1.84-1.196 4.964 4.964 0 0 1-1.2-1.84c-.218-.562-.48-1.41-.55-2.97-.076-1.686-.092-2.192-.092-6.466 0-4.272.016-4.776.092-6.462.072-1.56.332-2.408.552-2.972.29-.746.638-1.28 1.198-1.84s1.092-.906 1.84-1.196c.564-.22 1.41-.48 2.97-.552 1.476-.068 2.048-.088 5.03-.09v.004zm9.976 2.656a1.931 1.931 0 0 0-1.358.562 1.913 1.913 0 0 0-.562 1.358 1.931 1.931 0 0 0 .562 1.358 1.913 1.913 0 0 0 1.358.562 1.921 1.921 0 1 0 0-3.84zm-8.54 2.244a8.223 8.223 0 0 0-5.894 2.361 8.212 8.212 0 0 0-2.453 5.856 8.224 8.224 0 0 0 5.163 7.63 8.221 8.221 0 0 0 11.274-7.628 8.215 8.215 0 0 0-8.09-8.217zm0 2.882A5.336 5.336 0 0 1 21.336 16a5.336 5.336 0 0 1-5.334 5.334A5.336 5.336 0 0 1 10.668 16a5.336 5.336 0 0 1 5.334-5.334z"/></symbol><symbol id="icon-menu" viewBox="0 0 59 32"><path stroke-linecap="round" stroke-width="3.368" d="M1.684 1.684h55.579M1.684 30.316h55.579M1.684 16.842h55.579"/></symbol><symbol id="icon-twitter" viewBox="0 0 32 32"><path d="M31.524 6.583a12.42 12.42 0 0 1-3.567.977 6.23 6.23 0 0 0 2.731-3.437 12.4 12.4 0 0 1-3.944 1.507 6.209 6.209 0 0 0-7.468-1.23 6.214 6.214 0 0 0-3.117 6.897 17.636 17.636 0 0 1-12.802-6.49 6.213 6.213 0 0 0-.84 3.123 6.208 6.208 0 0 0 2.763 5.171 6.194 6.194 0 0 1-2.813-.777v.08a6.216 6.216 0 0 0 4.982 6.091 6.255 6.255 0 0 1-2.805.107 6.22 6.22 0 0 0 5.803 4.312 12.465 12.465 0 0 1-7.715 2.66c-.495 0-.991-.029-1.483-.087a17.568 17.568 0 0 0 9.52 2.791c11.427 0 17.673-9.464 17.673-17.672 0-.267-.007-.536-.019-.803A12.63 12.63 0 0 0 31.52 6.59l.003-.004z"/></symbol></defs></svg>