<svg aria-hidden="true" style="position: absolute; width: 0; height: 0; overflow: hidden;" version="1.1" xmlns="http://www.w3.org/2000/svg" xmlns:xlink="http://www.w3.org/1999/xlink">
<defs>
<symbol id="icon-valorant-logo" viewBox="0 0 38 32">
<path d="M0 15.868v-15.868l25.556 32h-12.778l-12.778-16.132z"></path>
<path d="M34.119 21.289h-12.515l16.796-21.289v15.868l-4.281 5.422z"></path>
</symbol>
<symbol id="icon-rito-logo" viewBox="0 0 114 32">
<path d="M19.155 0.064l-19.155 8.871 4.773 18.164 3.633-0.446-0.999-11.421 1.193-0.531 2.060 11.675 6.208-0.762-1.104-12.606 1.181-0.526 2.265 12.845 6.28-0.772-1.208-13.818 1.195-0.531 2.477 14.047 6.208-0.762v-19.667l-15.005-3.759zM19.605 27.613l0.316 1.788 14.239 2.374v-5.95l-14.555 1.788zM47.628 23.886v2.449h3.020c0 0.001 0 0.001 0 0.002 0 0.52-0.138 1.009-0.38 1.43l0.007-0.014c-0.258 0.43-0.629 0.77-1.071 0.984l-0.015 0.007c-0.473 0.221-1.027 0.351-1.612 0.351-0.040 0-0.080-0.001-0.12-0.002l0.006 0c-0.028 0.001-0.061 0.001-0.094 0.001-0.686 0-1.324-0.203-1.858-0.552l0.013 0.008c-0.558-0.391-0.988-0.927-1.241-1.555l-0.008-0.023c-0.28-0.694-0.442-1.498-0.442-2.34 0-0.059 0.001-0.117 0.002-0.176l-0 0.009c-0.001-0.049-0.002-0.108-0.002-0.166 0-0.836 0.166-1.632 0.467-2.359l-0.015 0.041c0.271-0.64 0.704-1.167 1.249-1.544l0.012-0.008c0.515-0.339 1.146-0.54 1.824-0.54 0.028 0 0.057 0 0.085 0.001l-0.004-0c0.010-0 0.021-0 0.033-0 0.358 0 0.705 0.050 1.033 0.144l-0.026-0.006c0.32 0.093 0.6 0.232 0.848 0.411l-0.008-0.006c0.243 0.176 0.447 0.388 0.611 0.629l0.006 0.009c0.164 0.247 0.297 0.534 0.383 0.84l0.005 0.021h3.349c-0.095-0.746-0.333-1.42-0.684-2.018l0.013 0.025c-0.364-0.617-0.82-1.137-1.356-1.562l-0.012-0.009c-0.548-0.432-1.186-0.78-1.877-1.013l-0.045-0.013c-0.68-0.229-1.462-0.361-2.276-0.361-0.022 0-0.045 0-0.067 0l0.003-0c-0.018-0-0.039-0-0.060-0-0.956 0-1.868 0.185-2.703 0.522l0.049-0.017c-0.862 0.349-1.596 0.849-2.202 1.474l-0.002 0.002c-0.632 0.658-1.134 1.447-1.461 2.321l-0.015 0.047c-0.336 0.903-0.531 1.947-0.531 3.036 0 0.053 0 0.107 0.001 0.16l-0-0.008q0 2.316 0.88 3.993c0.568 1.086 1.408 1.962 2.431 2.557l0.030 0.016c1.053 0.573 2.306 0.91 3.637 0.91 1.204 0 2.344-0.275 3.36-0.767l-0.046 0.020c0.952-0.49 1.722-1.218 2.249-2.108l0.014-0.026q0.824-1.394 0.822-3.336v-1.893zM89.33 31.8v-14.631h10.021v2.707h-6.714v3.25h5.428v2.707h-5.428v3.258h6.73v2.707h-10.036zM109.079 21.463c-0.032-0.526-0.292-0.986-0.682-1.285l-0.004-0.003c-0.405-0.308-0.97-0.462-1.685-0.462-0.032-0.001-0.070-0.002-0.108-0.002-0.397 0-0.777 0.072-1.129 0.203l0.022-0.007c-0.301 0.112-0.552 0.297-0.74 0.536l-0.003 0.004c-0.16 0.214-0.257 0.483-0.258 0.776v0c-0.001 0.015-0.001 0.032-0.001 0.049 0 0.216 0.057 0.42 0.157 0.595l-0.003-0.006c0.117 0.195 0.274 0.354 0.46 0.472l0.006 0.003c0.206 0.136 0.444 0.253 0.695 0.34l0.023 0.007c0.239 0.088 0.54 0.175 0.848 0.244l0.052 0.010 1.286 0.299c0.698 0.15 1.31 0.356 1.89 0.621l-0.057-0.023c0.536 0.242 0.997 0.546 1.401 0.912l-0.005-0.004c0.373 0.34 0.673 0.753 0.879 1.216l0.009 0.023c0.198 0.455 0.313 0.984 0.313 1.541 0 0.024-0 0.047-0.001 0.071l0-0.004c0.001 0.031 0.001 0.068 0.001 0.104 0 0.838-0.257 1.615-0.697 2.258l0.009-0.014c-0.493 0.679-1.161 1.204-1.939 1.512l-0.030 0.010c-0.856 0.34-1.848 0.538-2.886 0.538-0.072 0-0.143-0.001-0.214-0.003l0.010 0c-0.053 0.001-0.115 0.002-0.177 0.002-1.064 0-2.081-0.201-3.015-0.566l0.056 0.019c-0.859-0.34-1.567-0.908-2.069-1.63l-0.010-0.015q-0.743-1.098-0.776-2.738h3.186c0.009 0.883 0.569 1.633 1.353 1.923l0.014 0.005c0.396 0.155 0.855 0.245 1.334 0.245 0.025 0 0.049-0 0.073-0.001l-0.004 0c0.023 0.001 0.051 0.001 0.078 0.001 0.435 0 0.853-0.078 1.238-0.22l-0.025 0.008c0.337-0.121 0.62-0.321 0.837-0.579l0.002-0.003c0.189-0.236 0.304-0.539 0.305-0.869v-0c0-0.004 0-0.008 0-0.013 0-0.291-0.104-0.558-0.277-0.765l0.002 0.002c-0.217-0.236-0.486-0.422-0.789-0.54l-0.014-0.005c-0.374-0.158-0.82-0.301-1.282-0.405l-0.055-0.010-1.565-0.378q-1.871-0.446-2.954-1.408t-1.074-2.607c-0.001-0.031-0.001-0.068-0.001-0.104 0-0.843 0.271-1.623 0.731-2.258l-0.008 0.011c0.512-0.688 1.188-1.226 1.972-1.561l0.031-0.012c0.821-0.358 1.777-0.566 2.782-0.566 0.045 0 0.089 0 0.134 0.001l-0.007-0c0.046-0.001 0.1-0.002 0.155-0.002 0.99 0 1.932 0.208 2.783 0.584l-0.044-0.017c0.79 0.349 1.44 0.89 1.912 1.564l0.010 0.015c0.438 0.65 0.698 1.451 0.698 2.312 0 0.013-0 0.027-0 0.040v-0.002zM86.972 31.8h-3.272v-11.122l-0.335-0.004-3.305 11.126h-3.27l-3.216-11.126-0.417 0.004v11.122h-3.272v-14.631h5.56l2.808 9.806h0.339l2.808-9.806h5.57v14.631zM64.735 31.8h3.543l-4.913-14.629h-4.49l-4.92 14.629h3.549l0.956-3.208h5.318zM59.221 26.040l1.594-5.362h0.601l1.602 5.362zM113.249 18.717c-0.318-0.001-0.591-0.194-0.71-0.468l-0.002-0.005c-0.038-0.089-0.061-0.192-0.061-0.301s0.022-0.212 0.063-0.306l-0.002 0.005c0.041-0.096 0.096-0.177 0.165-0.246l-0 0c0.069-0.068 0.151-0.124 0.241-0.165l0.005-0.002c0.089-0.037 0.192-0.058 0.301-0.058s0.212 0.021 0.306 0.060l-0.005-0.002c0.096 0.042 0.177 0.098 0.246 0.167l-0-0c0.069 0.069 0.125 0.151 0.165 0.241l0.002 0.005c0.038 0.089 0.061 0.192 0.061 0.301s-0.022 0.212-0.063 0.306l0.002-0.005c-0.042 0.096-0.098 0.177-0.167 0.246v0c-0.069 0.069-0.151 0.125-0.241 0.165l-0.005 0.002c-0.088 0.038-0.191 0.060-0.299 0.060-0 0-0.001 0-0.001 0h0zM113.249 18.506c0.002 0 0.004 0 0.006 0 0.103 0 0.199-0.028 0.281-0.077l-0.003 0.001c0.084-0.048 0.152-0.113 0.202-0.192l0.001-0.002c0.048-0.081 0.076-0.179 0.076-0.283s-0.028-0.202-0.077-0.286l0.001 0.003c-0.052-0.081-0.121-0.146-0.203-0.192l-0.003-0.002c-0.081-0.048-0.179-0.076-0.283-0.076s-0.202 0.028-0.286 0.077l0.003-0.001c-0.080 0.049-0.145 0.114-0.192 0.191l-0.001 0.003c-0.049 0.081-0.078 0.179-0.078 0.283s0.029 0.202 0.079 0.286l-0.001-0.003c0.049 0.080 0.114 0.145 0.191 0.192l0.002 0.001c0.080 0.048 0.176 0.076 0.278 0.076 0.002 0 0.004 0 0.005-0h-0zM112.966 18.283v-0.712h0.345c0.002-0 0.004-0 0.006-0 0.046 0 0.090 0.011 0.13 0.030l-0.002-0.001c0.038 0.018 0.069 0.046 0.091 0.081l0.001 0.001c0.021 0.035 0.033 0.077 0.033 0.122 0 0.002-0 0.004-0 0.007v-0c0 0.002 0 0.005 0 0.007 0 0.045-0.013 0.086-0.036 0.121l0.001-0.001c-0.022 0.036-0.054 0.063-0.092 0.079l-0.001 0c-0.037 0.017-0.080 0.027-0.126 0.027-0.004 0-0.007-0-0.011-0h-0.232v-0.14h0.194c0.002 0 0.003 0 0.005 0 0.025 0 0.047-0.009 0.065-0.024l-0 0c0.017-0.017 0.027-0.041 0.027-0.067 0-0.002-0-0.003-0-0.005v0c0-0.002 0-0.004 0-0.007 0-0.026-0.010-0.049-0.027-0.065v0c-0.017-0.015-0.040-0.023-0.065-0.023-0.002 0-0.004 0-0.005 0h-0.106v0.568zM113.429 17.957l0.159 0.326h-0.215l-0.145-0.326zM54.77 0.2h3.307v14.631h-3.307zM73.78 7.515q0 2.409-0.913 4.073c-0.578 1.079-1.423 1.948-2.45 2.538l-0.031 0.016c-1.019 0.554-2.232 0.88-3.521 0.88s-2.502-0.326-3.56-0.9l0.039 0.020c-1.057-0.608-1.903-1.48-2.464-2.526l-0.017-0.034q-0.913-1.679-0.913-4.073t0.913-4.082c0.576-1.075 1.419-1.943 2.442-2.532l0.031-0.016c1.020-0.553 2.232-0.878 3.521-0.878s2.501 0.325 3.561 0.898l-0.040-0.020c1.057 0.606 1.903 1.476 2.464 2.52l0.017 0.034q0.913 1.676 0.913 4.082zM70.408 7.515c0.002-0.056 0.003-0.122 0.003-0.189 0-0.839-0.16-1.641-0.451-2.376l0.015 0.044c-0.255-0.641-0.679-1.168-1.217-1.544l-0.011-0.007c-0.537-0.335-1.188-0.533-1.886-0.533s-1.35 0.199-1.901 0.542l0.015-0.009c-0.55 0.383-0.974 0.911-1.223 1.529l-0.008 0.023c-0.277 0.75-0.437 1.617-0.437 2.521s0.16 1.771 0.454 2.573l-0.017-0.052c0.256 0.641 0.681 1.169 1.22 1.544l0.011 0.007c0.537 0.335 1.188 0.533 1.886 0.533s1.35-0.199 1.901-0.542l-0.015 0.009c0.549-0.382 0.973-0.911 1.22-1.529l0.008-0.023c0.275-0.692 0.435-1.495 0.435-2.334 0-0.066-0.001-0.131-0.003-0.197l0 0.010zM47.822 9.73l1.699 5.101h3.629l-1.889-5.494h-2.566l-0.153-0.473c0.489-0.095 1.325-0.242 2.065-0.747 1.023-0.702 1.687-1.862 1.697-3.177v-0.002c0.001-0.036 0.002-0.078 0.002-0.12 0-0.867-0.235-1.678-0.646-2.375l0.012 0.022c-0.431-0.726-1.050-1.3-1.79-1.665l-0.025-0.011c-0.778-0.369-1.691-0.585-2.653-0.585-0.065 0-0.13 0.001-0.195 0.003l0.010-0h-5.902v14.623h3.309v-5.101zM47.76 6.703c-0.385 0.146-0.83 0.231-1.295 0.231-0.040 0-0.079-0.001-0.119-0.002l0.006 0h-1.928v-4.046h1.922c0.031-0.001 0.068-0.002 0.104-0.002 0.468 0 0.916 0.089 1.326 0.251l-0.025-0.009c0.36 0.146 0.653 0.395 0.849 0.71l0.004 0.007c0.183 0.291 0.292 0.645 0.292 1.024 0 0.025-0 0.049-0.001 0.074l0-0.004c0.001 0.023 0.002 0.050 0.002 0.078 0 0.37-0.108 0.716-0.293 1.006l0.005-0.008c-0.201 0.313-0.493 0.553-0.838 0.685l-0.012 0.004zM74.093 0.2v2.715h5.682l0.155 0.475c-0.481 0.093-1.294 0.237-2.023 0.718v10.727h3.272v-11.927h3.805v-2.715z"></path>
</symbol>
<symbol id="icon-youtube" viewBox="0 0 32 32">
<path d="M31.333 8.676c-0.181-0.646-0.534-1.232-1.021-1.693-0.501-0.476-1.115-0.816-1.784-0.989-2.504-0.66-12.536-0.66-12.536-0.66-4.182-0.048-8.363 0.162-12.52 0.627-0.669 0.186-1.282 0.534-1.784 1.013-0.493 0.475-0.851 1.060-1.037 1.701-0.448 2.416-0.666 4.869-0.651 7.325-0.016 2.455 0.201 4.907 0.651 7.325 0.183 0.639 0.539 1.221 1.033 1.692s1.111 0.811 1.788 0.991c2.537 0.659 12.52 0.659 12.52 0.659 4.188 0.048 8.374-0.162 12.536-0.627 0.669-0.173 1.283-0.513 1.784-0.989 0.493-0.471 0.844-1.056 1.020-1.693 0.46-2.415 0.684-4.869 0.668-7.327 0.035-2.468-0.189-4.934-0.667-7.356v0.001zM12.803 20.565v-9.129l8.347 4.565-8.347 4.564z"></path>
</symbol>
<symbol id="icon-discord" viewBox="0 0 32 32">
<path d="M27.089 5.989c-2.040-0.92-4.227-1.6-6.513-1.987-0.020-0.004-0.041-0.001-0.060 0.007s-0.035 0.023-0.045 0.041c-0.28 0.492-0.592 1.133-0.811 1.64-2.425-0.362-4.891-0.362-7.316 0-0.243-0.562-0.518-1.109-0.823-1.64-0.010-0.018-0.026-0.033-0.045-0.042s-0.040-0.012-0.061-0.009c-2.285 0.387-4.472 1.067-6.513 1.988-0.018 0.007-0.032 0.020-0.043 0.036-4.149 6.1-5.287 12.049-4.728 17.924 0.002 0.014 0.006 0.028 0.013 0.041s0.017 0.024 0.028 0.032c2.422 1.763 5.123 3.106 7.991 3.973 0.020 0.006 0.041 0.006 0.061-0s0.038-0.018 0.051-0.035c0.616-0.827 1.165-1.7 1.635-2.617 0.028-0.053 0.001-0.117-0.055-0.139-0.861-0.324-1.696-0.716-2.496-1.171-0.014-0.008-0.027-0.020-0.035-0.034s-0.014-0.030-0.015-0.047c-0.001-0.017 0.002-0.033 0.009-0.048s0.017-0.028 0.031-0.038c0.168-0.124 0.336-0.253 0.496-0.383 0.014-0.012 0.032-0.019 0.050-0.021s0.037 0 0.054 0.008c5.236 2.352 10.907 2.352 16.081 0 0.017-0.008 0.036-0.011 0.054-0.009s0.036 0.009 0.051 0.021c0.16 0.131 0.327 0.26 0.496 0.384 0.013 0.010 0.024 0.023 0.031 0.038s0.011 0.031 0.010 0.048c-0.001 0.016-0.006 0.033-0.014 0.047s-0.020 0.026-0.035 0.034c-0.797 0.459-1.627 0.847-2.497 1.169-0.013 0.005-0.026 0.013-0.036 0.023s-0.018 0.022-0.023 0.035c-0.005 0.013-0.008 0.027-0.007 0.042s0.005 0.028 0.011 0.041c0.48 0.916 1.029 1.788 1.633 2.616 0.013 0.017 0.030 0.030 0.050 0.036s0.042 0.007 0.062 0.001c2.872-0.864 5.578-2.208 8.003-3.975 0.012-0.008 0.022-0.019 0.029-0.031s0.012-0.026 0.014-0.041c0.667-6.792-1.117-12.693-4.732-17.923-0.009-0.017-0.024-0.030-0.041-0.037zM10.693 20.371c-1.576 0-2.876-1.425-2.876-3.173 0-1.749 1.275-3.173 2.876-3.173 1.613 0 2.901 1.436 2.876 3.173 0 1.749-1.275 3.173-2.876 3.173zM21.327 20.371c-1.577 0-2.876-1.425-2.876-3.173 0-1.749 1.273-3.173 2.876-3.173 1.613 0 2.901 1.436 2.876 3.173 0 1.749-1.261 3.173-2.876 3.173z"></path>
</symbol>
<symbol id="icon-facebook" viewBox="0 0 32 32">
<path d="M0 16.089c0 7.955 5.777 14.569 13.333 15.911v-11.556h-4v-4.444h4v-3.556c0-4 2.577-6.221 6.223-6.221 1.155 0 2.4 0.177 3.555 0.355v4.089h-2.044c-1.956 0-2.4 0.977-2.4 2.223v3.111h4.267l-0.711 4.444h-3.556v11.556c7.556-1.341 13.333-7.955 13.333-15.911 0-8.849-7.2-16.089-16-16.089s-16 7.24-16 16.089z"></path>
</symbol>
<symbol id="icon-instagram" viewBox="0 0 32 32">
<path d="M16 0c-4.342 0-4.888 0.020-6.594 0.096-1.706 0.080-2.868 0.348-3.886 0.744-1.068 0.402-2.035 1.032-2.834 1.846-0.814 0.799-1.444 1.766-1.846 2.834-0.396 1.016-0.666 2.18-0.744 3.88-0.076 1.71-0.096 2.254-0.096 6.602 0 4.344 0.020 4.888 0.096 6.594 0.080 1.704 0.348 2.866 0.744 3.884 0.41 1.052 0.956 1.944 1.846 2.834 0.888 0.89 1.78 1.438 2.832 1.846 1.020 0.396 2.18 0.666 3.884 0.744 1.708 0.076 2.252 0.096 6.598 0.096s4.888-0.020 6.596-0.096c1.702-0.080 2.868-0.348 3.886-0.744 1.067-0.402 2.034-1.032 2.832-1.846 0.89-0.89 1.436-1.782 1.846-2.834 0.394-1.018 0.664-2.18 0.744-3.884 0.076-1.706 0.096-2.25 0.096-6.596s-0.020-4.89-0.096-6.598c-0.080-1.702-0.35-2.866-0.744-3.882-0.402-1.068-1.032-2.035-1.846-2.834-0.799-0.815-1.766-1.445-2.834-1.846-1.020-0.396-2.184-0.666-3.886-0.744-1.708-0.076-2.25-0.096-6.598-0.096h0.004zM14.566 2.884h1.436c4.272 0 4.778 0.014 6.464 0.092 1.56 0.070 2.408 0.332 2.972 0.55 0.746 0.29 1.28 0.638 1.84 1.198s0.906 1.092 1.196 1.84c0.22 0.562 0.48 1.41 0.55 2.97 0.078 1.686 0.094 2.192 0.094 6.462s-0.016 4.778-0.094 6.464c-0.070 1.56-0.332 2.406-0.55 2.97-0.256 0.695-0.666 1.323-1.198 1.838-0.56 0.56-1.092 0.906-1.84 1.196-0.56 0.22-1.408 0.48-2.97 0.552-1.686 0.076-2.192 0.094-6.464 0.094s-4.78-0.018-6.466-0.094c-1.56-0.072-2.406-0.332-2.97-0.552-0.695-0.256-1.324-0.665-1.84-1.196-0.532-0.516-0.943-1.145-1.2-1.84-0.218-0.562-0.48-1.41-0.55-2.97-0.076-1.686-0.092-2.192-0.092-6.466 0-4.272 0.016-4.776 0.092-6.462 0.072-1.56 0.332-2.408 0.552-2.972 0.29-0.746 0.638-1.28 1.198-1.84s1.092-0.906 1.84-1.196c0.564-0.22 1.41-0.48 2.97-0.552 1.476-0.068 2.048-0.088 5.030-0.090v0.004zM24.542 5.54c-0.252 0-0.502 0.050-0.735 0.146s-0.445 0.238-0.623 0.416c-0.178 0.178-0.32 0.39-0.416 0.623s-0.146 0.483-0.146 0.735 0.050 0.502 0.146 0.735c0.096 0.233 0.238 0.445 0.416 0.623s0.39 0.32 0.623 0.416c0.233 0.097 0.483 0.146 0.735 0.146 0.509 0 0.998-0.202 1.358-0.562s0.562-0.848 0.562-1.358-0.202-0.998-0.562-1.358c-0.36-0.36-0.848-0.562-1.358-0.562zM16.002 7.784c-1.090-0.017-2.172 0.183-3.184 0.588s-1.933 1.008-2.71 1.773c-0.777 0.765-1.394 1.676-1.815 2.682s-0.638 2.084-0.638 3.174c0 1.090 0.217 2.169 0.638 3.175s1.038 1.917 1.815 2.682c0.777 0.765 1.698 1.367 2.71 1.773s2.094 0.605 3.184 0.588c2.157-0.034 4.214-0.914 5.728-2.451s2.362-3.608 2.362-5.765-0.848-4.228-2.362-5.765c-1.514-1.537-3.571-2.418-5.728-2.452zM16.002 10.666c1.415 0 2.771 0.562 3.772 1.562s1.562 2.357 1.562 3.772c0 1.415-0.562 2.771-1.562 3.772s-2.357 1.562-3.772 1.562c-1.415 0-2.771-0.562-3.772-1.562s-1.562-2.357-1.562-3.772c0-1.415 0.562-2.771 1.562-3.772s2.357-1.562 3.772-1.562z"></path>
</symbol>
<symbol id="icon-menu" viewBox="0 0 59 32">
<path stroke-linejoin="miter" stroke-linecap="round" stroke-miterlimit="4" stroke-width="3.3684" d="M1.684 1.684h55.579M1.684 30.316h55.579M1.684 16.842h55.579"></path>
</symbol>
<symbol id="icon-twitter" viewBox="0 0 32 32">
<path d="M31.524 6.583c-1.113 0.493-2.309 0.827-3.567 0.977 1.297-0.776 2.268-1.998 2.731-3.437-1.219 0.724-2.553 1.234-3.944 1.507-0.935-0.999-2.175-1.661-3.525-1.883s-2.736 0.007-3.943 0.653c-1.206 0.646-2.166 1.672-2.73 2.919s-0.699 2.645-0.387 3.978c-2.47-0.124-4.886-0.766-7.091-1.884s-4.151-2.688-5.711-4.606c-0.533 0.92-0.84 1.987-0.84 3.123-0.001 1.023 0.251 2.030 0.733 2.932s1.179 1.671 2.030 2.239c-0.986-0.031-1.951-0.298-2.813-0.777v0.080c-0 1.434 0.496 2.825 1.404 3.935s2.173 1.872 3.578 2.156c-0.915 0.248-1.874 0.284-2.805 0.107 0.397 1.234 1.169 2.313 2.21 3.087s2.297 1.202 3.593 1.225c-2.2 1.727-4.917 2.664-7.715 2.66-0.495 0-0.991-0.029-1.483-0.087 2.839 1.826 6.144 2.794 9.52 2.791 11.427 0 17.673-9.464 17.673-17.672 0-0.267-0.007-0.536-0.019-0.803 1.215-0.879 2.264-1.967 3.097-3.213l0.003-0.004z"></path>
</symbol>
</defs>
</svg>
