<svg aria-hidden="true" style="position: absolute; width: 0; height: 0; overflow: hidden;" version="1.1" xmlns="http://www.w3.org/2000/svg" xmlns:xlink="http://www.w3.org/1999/xlink">
<defs>
<symbol id="icon-youtube" viewBox="0 0 32 32">
<path d="M31.333 8.676c-0.181-0.646-0.534-1.232-1.021-1.693-0.501-0.476-1.115-0.816-1.784-0.989-2.504-0.66-12.536-0.66-12.536-0.66-4.182-0.048-8.363 0.162-12.52 0.627-0.669 0.186-1.282 0.534-1.784 1.013-0.493 0.475-0.851 1.060-1.037 1.701-0.448 2.416-0.666 4.869-0.651 7.325-0.016 2.455 0.201 4.907 0.651 7.325 0.183 0.639 0.539 1.221 1.033 1.692s1.111 0.811 1.788 0.991c2.537 0.659 12.52 0.659 12.52 0.659 4.188 0.048 8.374-0.162 12.536-0.627 0.669-0.173 1.283-0.513 1.784-0.989 0.493-0.471 0.844-1.056 1.020-1.693 0.46-2.415 0.684-4.869 0.668-7.327 0.035-2.468-0.189-4.934-0.667-7.356v0.001zM12.803 20.565v-9.129l8.347 4.565-8.347 4.564z"></path>
</symbol>
<symbol id="icon-discord" viewBox="0 0 32 32">
<path d="M27.089 5.989c-2.040-0.92-4.227-1.6-6.513-1.987-0.020-0.004-0.041-0.001-0.060 0.007s-0.035 0.023-0.045 0.041c-0.28 0.492-0.592 1.133-0.811 1.64-2.425-0.362-4.891-0.362-7.316 0-0.243-0.562-0.518-1.109-0.823-1.64-0.010-0.018-0.026-0.033-0.045-0.042s-0.040-0.012-0.061-0.009c-2.285 0.387-4.472 1.067-6.513 1.988-0.018 0.007-0.032 0.020-0.043 0.036-4.149 6.1-5.287 12.049-4.728 17.924 0.002 0.014 0.006 0.028 0.013 0.041s0.017 0.024 0.028 0.032c2.422 1.763 5.123 3.106 7.991 3.973 0.020 0.006 0.041 0.006 0.061-0s0.038-0.018 0.051-0.035c0.616-0.827 1.165-1.7 1.635-2.617 0.028-0.053 0.001-0.117-0.055-0.139-0.861-0.324-1.696-0.716-2.496-1.171-0.014-0.008-0.027-0.020-0.035-0.034s-0.014-0.030-0.015-0.047c-0.001-0.017 0.002-0.033 0.009-0.048s0.017-0.028 0.031-0.038c0.168-0.124 0.336-0.253 0.496-0.383 0.014-0.012 0.032-0.019 0.050-0.021s0.037 0 0.054 0.008c5.236 2.352 10.907 2.352 16.081 0 0.017-0.008 0.036-0.011 0.054-0.009s0.036 0.009 0.051 0.021c0.16 0.131 0.327 0.26 0.496 0.384 0.013 0.010 0.024 0.023 0.031 0.038s0.011 0.031 0.010 0.048c-0.001 0.016-0.006 0.033-0.014 0.047s-0.020 0.026-0.035 0.034c-0.797 0.459-1.627 0.847-2.497 1.169-0.013 0.005-0.026 0.013-0.036 0.023s-0.018 0.022-0.023 0.035c-0.005 0.013-0.008 0.027-0.007 0.042s0.005 0.028 0.011 0.041c0.48 0.916 1.029 1.788 1.633 2.616 0.013 0.017 0.030 0.030 0.050 0.036s0.042 0.007 0.062 0.001c2.872-0.864 5.578-2.208 8.003-3.975 0.012-0.008 0.022-0.019 0.029-0.031s0.012-0.026 0.014-0.041c0.667-6.792-1.117-12.693-4.732-17.923-0.009-0.017-0.024-0.030-0.041-0.037zM10.693 20.371c-1.576 0-2.876-1.425-2.876-3.173 0-1.749 1.275-3.173 2.876-3.173 1.613 0 2.901 1.436 2.876 3.173 0 1.749-1.275 3.173-2.876 3.173zM21.327 20.371c-1.577 0-2.876-1.425-2.876-3.173 0-1.749 1.273-3.173 2.876-3.173 1.613 0 2.901 1.436 2.876 3.173 0 1.749-1.261 3.173-2.876 3.173z"></path>
</symbol>
<symbol id="icon-facebook" viewBox="0 0 32 32">
<path d="M0 16.089c0 7.955 5.777 14.569 13.333 15.911v-11.556h-4v-4.444h4v-3.556c0-4 2.577-6.221 6.223-6.221 1.155 0 2.4 0.177 3.555 0.355v4.089h-2.044c-1.956 0-2.4 0.977-2.4 2.223v3.111h4.267l-0.711 4.444h-3.556v11.556c7.556-1.341 13.333-7.955 13.333-15.911 0-8.849-7.2-16.089-16-16.089s-16 7.24-16 16.089z"></path>
</symbol>
<symbol id="icon-instagram" viewBox="0 0 32 32">
<path d="M16 0c-4.342 0-4.888 0.020-6.594 0.096-1.706 0.080-2.868 0.348-3.886 0.744-1.068 0.402-2.035 1.032-2.834 1.846-0.814 0.799-1.444 1.766-1.846 2.834-0.396 1.016-0.666 2.18-0.744 3.88-0.076 1.71-0.096 2.254-0.096 6.602 0 4.344 0.020 4.888 0.096 6.594 0.080 1.704 0.348 2.866 0.744 3.884 0.41 1.052 0.956 1.944 1.846 2.834 0.888 0.89 1.78 1.438 2.832 1.846 1.020 0.396 2.18 0.666 3.884 0.744 1.708 0.076 2.252 0.096 6.598 0.096s4.888-0.020 6.596-0.096c1.702-0.080 2.868-0.348 3.886-0.744 1.067-0.402 2.034-1.032 2.832-1.846 0.89-0.89 1.436-1.782 1.846-2.834 0.394-1.018 0.664-2.18 0.744-3.884 0.076-1.706 0.096-2.25 0.096-6.596s-0.020-4.89-0.096-6.598c-0.080-1.702-0.35-2.866-0.744-3.882-0.402-1.068-1.032-2.035-1.846-2.834-0.799-0.815-1.766-1.445-2.834-1.846-1.020-0.396-2.184-0.666-3.886-0.744-1.708-0.076-2.25-0.096-6.598-0.096h0.004zM14.566 2.884h1.436c4.272 0 4.778 0.014 6.464 0.092 1.56 0.070 2.408 0.332 2.972 0.55 0.746 0.29 1.28 0.638 1.84 1.198s0.906 1.092 1.196 1.84c0.22 0.562 0.48 1.41 0.55 2.97 0.078 1.686 0.094 2.192 0.094 6.462s-0.016 4.778-0.094 6.464c-0.070 1.56-0.332 2.406-0.55 2.97-0.256 0.695-0.666 1.323-1.198 1.838-0.56 0.56-1.092 0.906-1.84 1.196-0.56 0.22-1.408 0.48-2.97 0.552-1.686 0.076-2.192 0.094-6.464 0.094s-4.78-0.018-6.466-0.094c-1.56-0.072-2.406-0.332-2.97-0.552-0.695-0.256-1.324-0.665-1.84-1.196-0.532-0.516-0.943-1.145-1.2-1.84-0.218-0.562-0.48-1.41-0.55-2.97-0.076-1.686-0.092-2.192-0.092-6.466 0-4.272 0.016-4.776 0.092-6.462 0.072-1.56 0.332-2.408 0.552-2.972 0.29-0.746 0.638-1.28 1.198-1.84s1.092-0.906 1.84-1.196c0.564-0.22 1.41-0.48 2.97-0.552 1.476-0.068 2.048-0.088 5.030-0.090v0.004zM24.542 5.54c-0.252 0-0.502 0.050-0.735 0.146s-0.445 0.238-0.623 0.416c-0.178 0.178-0.32 0.39-0.416 0.623s-0.146 0.483-0.146 0.735 0.050 0.502 0.146 0.735c0.096 0.233 0.238 0.445 0.416 0.623s0.39 0.32 0.623 0.416c0.233 0.097 0.483 0.146 0.735 0.146 0.509 0 0.998-0.202 1.358-0.562s0.562-0.848 0.562-1.358-0.202-0.998-0.562-1.358c-0.36-0.36-0.848-0.562-1.358-0.562zM16.002 7.784c-1.090-0.017-2.172 0.183-3.184 0.588s-1.933 1.008-2.71 1.773c-0.777 0.765-1.394 1.676-1.815 2.682s-0.638 2.084-0.638 3.174c0 1.090 0.217 2.169 0.638 3.175s1.038 1.917 1.815 2.682c0.777 0.765 1.698 1.367 2.71 1.773s2.094 0.605 3.184 0.588c2.157-0.034 4.214-0.914 5.728-2.451s2.362-3.608 2.362-5.765-0.848-4.228-2.362-5.765c-1.514-1.537-3.571-2.418-5.728-2.452zM16.002 10.666c1.415 0 2.771 0.562 3.772 1.562s1.562 2.357 1.562 3.772c0 1.415-0.562 2.771-1.562 3.772s-2.357 1.562-3.772 1.562c-1.415 0-2.771-0.562-3.772-1.562s-1.562-2.357-1.562-3.772c0-1.415 0.562-2.771 1.562-3.772s2.357-1.562 3.772-1.562z"></path>
</symbol>
<symbol id="icon-menu" viewBox="0 0 59 32">
<path stroke-linejoin="miter" stroke-linecap="round" stroke-miterlimit="4" stroke-width="3.3684" d="M1.684 1.684h55.579M1.684 30.316h55.579M1.684 16.842h55.579"></path>
</symbol>
<symbol id="icon-twitter" viewBox="0 0 32 32">
<path d="M31.524 6.583c-1.113 0.493-2.309 0.827-3.567 0.977 1.297-0.776 2.268-1.998 2.731-3.437-1.219 0.724-2.553 1.234-3.944 1.507-0.935-0.999-2.175-1.661-3.525-1.883s-2.736 0.007-3.943 0.653c-1.206 0.646-2.166 1.672-2.73 2.919s-0.699 2.645-0.387 3.978c-2.47-0.124-4.886-0.766-7.091-1.884s-4.151-2.688-5.711-4.606c-0.533 0.92-0.84 1.987-0.84 3.123-0.001 1.023 0.251 2.030 0.733 2.932s1.179 1.671 2.030 2.239c-0.986-0.031-1.951-0.298-2.813-0.777v0.080c-0 1.434 0.496 2.825 1.404 3.935s2.173 1.872 3.578 2.156c-0.915 0.248-1.874 0.284-2.805 0.107 0.397 1.234 1.169 2.313 2.21 3.087s2.297 1.202 3.593 1.225c-2.2 1.727-4.917 2.664-7.715 2.66-0.495 0-0.991-0.029-1.483-0.087 2.839 1.826 6.144 2.794 9.52 2.791 11.427 0 17.673-9.464 17.673-17.672 0-0.267-0.007-0.536-0.019-0.803 1.215-0.879 2.264-1.967 3.097-3.213l0.003-0.004z"></path>
</symbol>





<symbol id = "rito-logo" width="85" height="27" class="_32ANSIZormifc9Vc6VVwrx" viewBox="0 0 587.93 165"><title>mainLogoRiotFist21</title><path d="M98.77.33L0 46.07l24.61 93.66 18.73-2.3-5.15-58.89 6.15-2.74L54.96 136l32.01-3.93-5.69-65 6.09-2.71 11.68 66.23 32.38-3.98-6.23-71.25 6.16-2.74 12.77 72.43 32.01-3.93V19.71L98.77.33zm2.32 142.05l1.63 9.22 73.42 12.24v-30.68l-75.01 9.22h-.04zm144.49-19.22v12.63h15.57a14.84 14.84 0 01-1.92 7.31 13 13 0 01-5.6 5.11 20 20 0 01-8.9 1.8 17.53 17.53 0 01-10-2.8 17.87 17.87 0 01-6.44-8.14 33.06 33.06 0 01-2.27-12.93 31.81 31.81 0 012.32-12.81 18.14 18.14 0 016.5-8 17.27 17.27 0 019.82-2.78 19.31 19.31 0 015.36.71 14.15 14.15 0 014.33 2.09 12.92 12.92 0 013.18 3.29 15.61 15.61 0 012 4.44h17.27a27.22 27.22 0 00-3.46-10.28 28.84 28.84 0 00-7.05-8.1 32.6 32.6 0 00-9.91-5.29 37.91 37.91 0 00-12.06-1.86 37.32 37.32 0 00-14 2.6 32.6 32.6 0 00-11.36 7.61 35 35 0 00-7.61 12.21 46.15 46.15 0 00-2.73 16.44q0 11.94 4.54 20.59a32.4 32.4 0 0012.69 13.27 39.84 39.84 0 0035.84.84 28.39 28.39 0 0011.67-11q4.25-7.19 4.24-17.2v-9.76zm215.03 40.81V88.53h51.67v13.96h-34.62v16.76h27.99v13.96h-27.99v16.8h34.7v13.96h-51.75zm101.83-53.3a9 9 0 00-3.54-6.64c-2.09-1.59-5-2.38-8.69-2.38a16.63 16.63 0 00-6.26 1 8.62 8.62 0 00-3.83 2.78 6.74 6.74 0 00-1.33 4 6.2 6.2 0 00.79 3.29 7.27 7.27 0 002.4 2.45 16.54 16.54 0 003.7 1.79 40.14 40.14 0 004.64 1.31l6.63 1.54a47.19 47.19 0 019.45 3.08 27.46 27.46 0 017.2 4.68 18.84 18.84 0 014.58 6.39 20.37 20.37 0 011.61 8.29 20.65 20.65 0 01-3.54 12.11 22.56 22.56 0 01-10.15 7.85 41.31 41.31 0 01-15.93 2.76 42.69 42.69 0 01-16.17-2.81 23.22 23.22 0 01-10.72-8.48q-3.83-5.66-4-14.12h16.43a10.68 10.68 0 007.05 9.94 19.37 19.37 0 007.24 1.26 18.44 18.44 0 006.66-1.09 10 10 0 004.33-3 7.22 7.22 0 001.57-4.48 6.16 6.16 0 00-1.42-4 10.86 10.86 0 00-4.14-2.81 42.07 42.07 0 00-6.89-2.14l-8.07-1.95q-9.65-2.3-15.23-7.26t-5.54-13.44a19.86 19.86 0 013.72-12.12 24.74 24.74 0 0110.33-8.11 36.74 36.74 0 0115-2.91 35.62 35.62 0 0114.92 2.91 23.43 23.43 0 019.91 8.14 21.54 21.54 0 013.6 12.12zm-113.99 53.3h-16.87v-57.35l-1.73-.02-17.04 57.37h-16.86l-16.58-57.37-2.15.02v57.35h-16.87V88.53h28.67l14.48 50.56h1.75l14.48-50.56h28.72v75.44zm-114.66 0h18.27l-25.33-75.43h-23.15l-25.37 75.43h18.3l4.93-16.54h27.42zm-28.43-29.7l8.22-27.65h3.1l8.26 27.65zm278.58-37.76a4 4 0 01-3.67-2.44 4 4 0 010-3.1 4 4 0 01.85-1.27 4.25 4.25 0 011.27-.86 4.15 4.15 0 013.1 0 4.13 4.13 0 011.27.86 4.08 4.08 0 01.86 1.27 4 4 0 010 3.1 4.08 4.08 0 01-.86 1.27 4 4 0 01-1.27.86 4 4 0 01-1.55.31zm0-1.09a2.84 2.84 0 001.47-.39 2.94 2.94 0 001.05-1 2.93 2.93 0 000-2.92 3 3 0 00-1.06-1 2.93 2.93 0 00-2.92 0 3 3 0 00-1 1 2.86 2.86 0 000 2.92 3 3 0 001 1 2.83 2.83 0 001.46.39zm-1.46-1.15V90.6h1.78a1.52 1.52 0 01.69.15 1.13 1.13 0 01.47.42 1.24 1.24 0 01.17.66 1.16 1.16 0 01-.18.66 1 1 0 01-.48.41 1.56 1.56 0 01-.7.14h-1.2v-.72h1a.52.52 0 00.36-.12.5.5 0 00.14-.37.47.47 0 00-.14-.37.52.52 0 00-.36-.12h-.55v2.93zm2.39-1.68l.82 1.68h-1.11l-.75-1.68zM282.41 1.03h17.05v75.44h-17.05zm98.02 37.72q0 12.42-4.71 21a32.67 32.67 0 01-12.79 13.17 38.57 38.57 0 01-36.31 0 32.75 32.75 0 01-12.79-13.2q-4.71-8.66-4.71-21t4.71-21.05a32.67 32.67 0 0112.75-13.14 38.65 38.65 0 0136.31 0 32.67 32.67 0 0112.79 13.17q4.71 8.64 4.71 21.05m-17.35 0a33.35 33.35 0 00-2.23-13 17.47 17.47 0 00-6.33-8 18.57 18.57 0 00-19.45 0 17.57 17.57 0 00-6.35 8 38.59 38.59 0 000 26 17.49 17.49 0 006.35 8 18.57 18.57 0 0019.45 0 17.39 17.39 0 006.33-8 33.4 33.4 0 002.23-13M246.58 50.17l8.76 26.3h18.71l-9.74-28.33h-13.23l-.79-2.44c2.52-.49 6.83-1.25 10.65-3.85a20 20 0 008.75-16.39 24.15 24.15 0 00-3.26-12.75 21.9 21.9 0 00-9.36-8.64 32.56 32.56 0 00-14.64-3H212v75.4h17.06v-26.3zm-.32-15.61a19.35 19.35 0 01-7.26 1.18h-9.94V14.88h9.91a18.68 18.68 0 017.25 1.24 9.12 9.12 0 014.4 3.7 10 10 0 011.5 5.64 9.65 9.65 0 01-1.48 5.55 8.86 8.86 0 01-4.38 3.55M382.04 1.03v14h29.3l.8 2.45c-2.48.48-6.67 1.22-10.43 3.7v55.31h16.87v-61.5h19.62v-14z"></path></symbol>
</defs>
</svg>
