<svg width="35" height="35" viewBox="0 0 35 35" fill="none" xmlns="http://www.w3.org/2000/svg">
<path d="M34.4794 7.19988C33.2617 7.73947 31.9535 8.10405 30.5783 8.26884C31.9973 7.41979 33.0589 6.08348 33.565 4.50926C32.2319 5.30112 30.7728 5.8585 29.2512 6.15718C28.2281 5.06469 26.8728 4.34057 25.3959 4.09724C23.919 3.85392 22.4031 4.105 21.0835 4.8115C19.7639 5.51801 18.7145 6.64041 18.0981 8.00445C17.4818 9.36849 17.3331 10.8979 17.675 12.3551C14.9737 12.2195 12.3311 11.5174 9.91874 10.2943C7.50636 9.07131 5.3781 7.3547 3.67208 5.25593C3.08875 6.26218 2.75333 7.42884 2.75333 8.67134C2.75268 9.78988 3.02813 10.8913 3.55524 11.8778C4.08234 12.8644 4.84482 13.7056 5.775 14.3268C4.69623 14.2924 3.64127 14.0009 2.69791 13.4766V13.5641C2.6978 15.1328 3.24046 16.6534 4.2338 17.8676C5.22715 19.0818 6.61 19.915 8.14771 20.2257C7.14697 20.4966 6.09778 20.5364 5.07937 20.3424C5.51322 21.6922 6.35832 22.8726 7.49637 23.7183C8.63441 24.564 10.0084 25.0326 11.426 25.0586C9.01955 26.9478 6.04754 27.9725 2.98812 27.968C2.44618 27.9682 1.90469 27.9365 1.36646 27.8732C4.47194 29.8699 8.08695 30.9296 11.779 30.9255C24.2769 30.9255 31.1092 20.5743 31.1092 11.5968C31.1092 11.3051 31.1019 11.0105 31.0887 10.7188C32.4177 9.75776 33.5649 8.56765 34.4765 7.20426L34.4794 7.19988Z" fill="#FF4654"/>
</svg>
