<svg width="35" height="35" viewBox="0 0 35 35" fill="none" xmlns="http://www.w3.org/2000/svg">
<g clip-path="url(#clip0_80_301)">
<path d="M34.2708 9.48945C34.0727 8.78249 33.6866 8.14245 33.1537 7.63736C32.6058 7.11674 31.9343 6.74433 31.2025 6.55528C28.4637 5.8334 17.4912 5.8334 17.4912 5.8334C12.9169 5.78136 8.34375 6.01026 3.7975 6.51882C3.06569 6.72184 2.3954 7.10257 1.84625 7.62715C1.30667 8.14632 0.915833 8.78653 0.711666 9.48799C0.221219 12.1301 -0.0170743 14.8129 -2.09722e-07 17.5001C-0.0175002 20.1849 0.220208 22.8667 0.711666 25.5122C0.911458 26.2107 1.30083 26.848 1.84187 27.3628C2.38292 27.8776 3.05667 28.2494 3.7975 28.4463C6.57271 29.1667 17.4912 29.1667 17.4912 29.1667C22.0714 29.2189 26.6504 28.99 31.2025 28.4813C31.9343 28.2923 32.6058 27.9199 33.1537 27.3992C33.6933 26.8844 34.0769 26.2442 34.2694 25.5472C34.7726 22.906 35.0173 20.2222 35 17.5336C35.0378 14.8337 34.7935 12.1371 34.2708 9.48799V9.48945ZM14.0029 22.4934V12.5082L23.1321 17.5015L14.0029 22.4934Z" fill="#FF4654"/>
</g>
<defs>
<clipPath id="clip0_80_301">
<rect width="35" height="35" fill="white"/>
</clipPath>
</defs>
</svg>
